# xmcd CD database file
#
# Track frame offsets:
#	150
#	17397
#	39493
#	64698
#	86410
#	102137
#	115533
#	139212
#	163241
#	182542
#	206090
#	219923
#	243428
#
# Disc length: 3534 seconds
#
# Revision: 0
# Processed by: cddbd v1.5.2PL0 Copyright (c) Steve Scherf et al.
# Submitted via: CDex 1.70beta2
#
DISCID=a50dcc0d
DTITLE=Johnny Drummer - Rockin' In The Juke Joint
DYEAR=2006
DGENRE=Blues
TTITLE0=Rockin' In The Juke Joint
TTITLE1=I Had A Dream
TTITLE2=Keep It A Secret
TTITLE3=You Are Breaking Me Down
TTITLE4=Working With Your Mojo
TTITLE5=A Blind Man
TTITLE6=Too Much Information
TTITLE7=Have Your Fun
TTITLE8=Third Finger Left Hand
TTITLE9=Stress Reliever
TTITLE10=Looking For My Baby
TTITLE11=Shake A Hand
TTITLE12=Love Jonz
EXTD=YEAR: 2006
EXTT0=
EXTT1=
EXTT2=
EXTT3=
EXTT4=
EXTT5=
EXTT6=
EXTT7=
EXTT8=
EXTT9=
EXTT10=
EXTT11=
EXTT12=
PLAYORDER=
